<?xml version="1.0" standalone="no"?><!DOCTYPE svg PUBLIC "-//W3C//DTD SVG 1.1//EN" "http://www.w3.org/Graphics/SVG/1.1/DTD/svg11.dtd"><svg t="1628492003514" class="icon" viewBox="0 0 1024 1024" version="1.1" xmlns="http://www.w3.org/2000/svg" p-id="11880" width="64" height="64" xmlns:xlink="http://www.w3.org/1999/xlink"><defs><style type="text/css"></style></defs><path d="M548.571429 932.571429a415.451429 415.451429 0 0 1-79.725715-8.045715 393.508571 393.508571 0 0 1-73.142857-23.405714 365.714286 365.714286 0 0 1-66.56-35.84 361.325714 361.325714 0 0 1-57.782857-48.274286 361.325714 361.325714 0 0 1-51.931429-57.782857 389.12 389.12 0 0 1-35.84-66.56 393.508571 393.508571 0 0 1-23.405714-73.142857 395.702857 395.702857 0 0 1 0-158.72 393.508571 393.508571 0 0 1 23.405714-73.142857A389.12 389.12 0 0 1 219.428571 319.634286a361.325714 361.325714 0 0 1 48.274286-57.782857 361.325714 361.325714 0 0 1 57.782857-48.274286 29.257143 29.257143 0 1 1 32.914286 48.274286 448.365714 448.365714 0 0 0-49.737143 40.96 373.76 373.76 0 0 0-40.228571 49.737142 307.2 307.2 0 0 0-31.451429 57.051429 359.862857 359.862857 0 0 0-17.554286 62.171429 345.965714 345.965714 0 0 0-7.314285 68.022857 344.502857 344.502857 0 0 0 7.314285 67.291428 359.862857 359.862857 0 0 0 19.017143 62.171429 307.2 307.2 0 0 0 31.451429 57.051428 373.76 373.76 0 0 0 40.228571 49.737143 448.365714 448.365714 0 0 0 49.737143 40.96 428.617143 428.617143 0 0 0 57.051429 30.72 348.891429 348.891429 0 0 0 62.902857 19.017143 321.097143 321.097143 0 0 0 134.582857 0 388.388571 388.388571 0 0 0 62.902857-19.017143 420.571429 420.571429 0 0 0 56.32-30.72 379.611429 379.611429 0 0 0 49.737143-40.96 379.611429 379.611429 0 0 0 40.96-49.737143 354.011429 354.011429 0 0 0 30.72-57.051428A307.2 307.2 0 0 0 877.714286 607.085714a351.085714 351.085714 0 0 0 0-135.314285 307.2 307.2 0 0 0-19.748572-62.171429 387.657143 387.657143 0 0 0-30.72-57.051429 379.611429 379.611429 0 0 0-40.96-49.737142 379.611429 379.611429 0 0 0-49.737143-40.96 29.257143 29.257143 0 0 1 32.914286-48.274286 361.325714 361.325714 0 0 1 57.782857 48.274286 361.325714 361.325714 0 0 1 48.274286 57.782857 492.251429 492.251429 0 0 1 36.571429 66.56 452.022857 452.022857 0 0 1 22.674285 73.142857 395.702857 395.702857 0 0 1 0 158.72 452.022857 452.022857 0 0 1-22.674285 73.142857 452.022857 452.022857 0 0 1-36.571429 66.56 399.36 399.36 0 0 1-47.542857 57.782857 365.714286 365.714286 0 0 1-58.514286 48.274286 423.497143 423.497143 0 0 1-66.56 36.571428 431.542857 431.542857 0 0 1-73.142857 22.674286 413.257143 413.257143 0 0 1-81.188571 9.508572z" p-id="11881" fill="#FF4E63"></path><path d="M542.72 593.92a29.257143 29.257143 0 0 1-29.257143-29.257143V175.542857a29.257143 29.257143 0 1 1 58.514286 0v389.12a29.257143 29.257143 0 0 1-29.257143 29.257143z" p-id="11882" fill="#FF4E63"></path></svg>