<?xml version="1.0" encoding="utf-8"?>
<svg version="1.1" xmlns:xlink="http://www.w3.org/1999/xlink" width="24px" height="20px" xmlns="http://www.w3.org/2000/svg">
  <g transform="matrix(1 0 0 1 -824 -928 )">
    <path d="M 6.50390625 5.56954436450839  C 6.69921875 5.37370103916866  6.796875 5.1119104716227  6.796875 4.7841726618705  C 6.796875 4.4564348521183  6.69921875 4.19264588329336  6.50390625 3.99280575539568  C 6.30859375 3.792965627498  6.05078125 3.69304556354916  5.73046875 3.69304556354916  C 5.39453125 3.69304556354916  5.09765625 3.79496402877698  4.83984375 3.99880095923261  C 4.58203125 4.20263788968825  4.453125 4.46442845723421  4.453125 4.7841726618705  C 4.453125 5.09592326139089  4.58203125 5.3537170263789  4.83984375 5.55755395683453  C 5.09765625 5.76139088729017  5.39453125 5.86330935251798  5.73046875 5.86330935251798  C 6.05078125 5.86330935251798  6.30859375 5.76538768984812  6.50390625 5.56954436450839  Z M 15.205078125 11.4748201438849  C 15.404296875 11.2989608313349  15.50390625 11.0951239008793  15.50390625 10.863309352518  C 15.50390625 10.6394884092726  15.404296875 10.4396482813749  15.205078125 10.2637889688249  C 15.005859375 10.087929656275  14.75 10  14.4375 10  C 14.2265625 10  14.033203125 10.089928057554  13.857421875 10.2697841726619  C 13.681640625 10.4496402877698  13.59375 10.6474820143885  13.59375 10.863309352518  C 13.59375 11.0871302957634  13.681640625 11.28896882494  13.857421875 11.468824940048  C 14.033203125 11.6486810551559  14.2265625 11.7386091127098  14.4375 11.7386091127098  C 14.75 11.7386091127098  15.005859375 11.6506794564349  15.205078125 11.4748201438849  Z M 12.451171875 5.56954436450839  C 12.642578125 5.37370103916866  12.73828125 5.1119104716227  12.73828125 4.7841726618705  C 12.73828125 4.4564348521183  12.642578125 4.19264588329336  12.451171875 3.99280575539568  C 12.259765625 3.792965627498  12.00390625 3.69304556354916  11.68359375 3.69304556354916  C 11.34765625 3.69304556354916  11.05078125 3.79496402877698  10.79296875 3.99880095923261  C 10.53515625 4.20263788968825  10.40625 4.46442845723421  10.40625 4.7841726618705  C 10.40625 5.09592326139089  10.53515625 5.3537170263789  10.79296875 5.55755395683453  C 11.05078125 5.76139088729017  11.34765625 5.86330935251798  11.68359375 5.86330935251798  C 12.00390625 5.86330935251798  12.259765625 5.76538768984812  12.451171875 5.56954436450839  Z M 19.875 11.4748201438849  C 20.078125 11.2989608313349  20.1796875 11.0951239008793  20.1796875 10.863309352518  C 20.1796875 10.6394884092726  20.078125 10.4396482813749  19.875 10.2637889688249  C 19.671875 10.087929656275  19.41796875 10  19.11328125 10  C 18.90234375 10  18.708984375 10.089928057554  18.533203125 10.2697841726619  C 18.357421875 10.4496402877698  18.26953125 10.6474820143885  18.26953125 10.863309352518  C 18.26953125 11.0871302957634  18.357421875 11.28896882494  18.533203125 11.468824940048  C 18.708984375 11.6486810551559  18.90234375 11.7386091127098  19.11328125 11.7386091127098  C 19.41796875 11.7386091127098  19.671875 11.6506794564349  19.875 11.4748201438849  Z M 15.462890625 2.97961630695444  C 16.287109375 3.91087130295763  16.8203125 4.95203836930456  17.0625 6.1031175059952  C 16.8203125 6.07114308553157  16.546875 6.05515587529976  16.2421875 6.05515587529976  C 14.921875 6.05515587529976  13.70703125 6.36290967226219  12.59765625 6.97841726618705  C 11.48828125 7.59392486011191  10.615234375 8.42725819344524  9.978515625 9.47841726618705  C 9.341796875 10.5295763389289  9.0234375 11.6786570743405  9.0234375 12.9256594724221  C 9.0234375 13.5491606714628  9.11328125 14.1566746602718  9.29296875 14.7482014388489  C 9.01953125 14.7721822541966  8.75390625 14.7841726618705  8.49609375 14.7841726618705  C 8.29296875 14.7841726618705  8.09765625 14.7781774580336  7.91015625 14.7661870503597  C 7.72265625 14.7541966426859  7.5078125 14.7282174260592  7.265625 14.6882494004796  C 7.0234375 14.6482813749001  6.849609375 14.6203037569944  6.744140625 14.6043165467626  C 6.638671875 14.5883293365308  6.42578125 14.5463629096723  6.10546875 14.4784172661871  C 5.78515625 14.4104716227018  5.58984375 14.3685051958433  5.51953125 14.3525179856115  L 2.5546875 15.8752997601918  L 3.3984375 13.2613908872902  C 1.1328125 11.638689048761  0 9.68025579536371  0 7.38609112709832  C 0 6.03517186250999  0.380859375 4.79216626698641  1.142578125 3.65707434052758  C 1.904296875 2.52198241406874  2.935546875 1.62869704236611  4.236328125 0.977218225419665  C 5.537109375 0.32573940847322  6.95703125 0  8.49609375 0  C 9.87109375 0  11.169921875 0.263788968824941  12.392578125 0.79136690647482  C 13.615234375 1.3189448441247  14.638671875 2.04836131095124  15.462890625 2.97961630695444  Z M 22.998046875 9.67026378896882  C 23.666015625 10.6414868105516  24 11.6946442845723  24 12.8297362110312  C 24 13.7649880095923  23.732421875 14.658273381295  23.197265625 15.5095923261391  C 22.662109375 16.3609112709832  21.9375 17.1342925659472  21.0234375 17.8297362110312  L 21.66796875 20  L 19.3359375 18.6930455635492  C 18.1640625 18.9888089528377  17.3125 19.136690647482  16.78125 19.136690647482  C 15.4609375 19.136690647482  14.24609375 18.8549160671463  13.13671875 18.2913669064748  C 12.02734375 17.7278177458034  11.154296875 16.9624300559552  10.517578125 15.9952038369305  C 9.880859375 15.0279776179057  9.5625 13.9728217426059  9.5625 12.8297362110312  C 9.5625 11.6866506794564  9.880859375 10.6314948041567  10.517578125 9.66426858513189  C 11.154296875 8.69704236610711  12.02734375 7.93165467625899  13.13671875 7.36810551558753  C 14.24609375 6.80455635491607  15.4609375 6.52278177458034  16.78125 6.52278177458034  C 18.0390625 6.52278177458034  19.22265625 6.80455635491607  20.33203125 7.36810551558753  C 21.44140625 7.93165467625899  22.330078125 8.69904076738609  22.998046875 9.67026378896882  Z " fill-rule="nonzero" fill="#ffffff" stroke="none" fill-opacity="0.87843137254902" transform="matrix(1 0 0 1 824 928 )" />
  </g>
</svg>