<?xml version="1.0" encoding="utf-8"?>
<svg version="1.1" xmlns:xlink="http://www.w3.org/1999/xlink" width="8px" height="8px" xmlns="http://www.w3.org/2000/svg">
  <g transform="matrix(1 0 0 1 -265 -515 )">
    <path d="M 269 515  C 271.24 515  273 516.76  273 519  C 273 521.24  271.24 523  269 523  C 266.76 523  265 521.24  265 519  C 265 516.76  266.76 515  269 515  Z " fill-rule="nonzero" fill="#d9001b" stroke="none" fill-opacity="0" />
    <path d="M 269 515.5  C 270.96 515.5  272.5 517.04  272.5 519  C 272.5 520.96  270.96 522.5  269 522.5  C 267.04 522.5  265.5 520.96  265.5 519  C 265.5 517.04  267.04 515.5  269 515.5  Z " stroke-width="1" stroke="#797979" fill="none" />
  </g>
</svg>