<?xml version="1.0" encoding="utf-8"?>
<svg version="1.1" xmlns:xlink="http://www.w3.org/1999/xlink" width="20px" height="20px" xmlns="http://www.w3.org/2000/svg">
  <g transform="matrix(1 0 0 1 -691 -552 )">
    <path d="M 701 552  C 706.6 552  711 556.4  711 562  C 711 567.6  706.6 572  701 572  C 695.4 572  691 567.6  691 562  C 691 556.4  695.4 552  701 552  Z " fill-rule="nonzero" fill="#ec808d" stroke="none" fill-opacity="0" />
    <path d="M 701 552.5  C 706.32 552.5  710.5 556.68  710.5 562  C 710.5 567.32  706.32 571.5  701 571.5  C 695.68 571.5  691.5 567.32  691.5 562  C 691.5 556.68  695.68 552.5  701 552.5  Z " stroke-width="1" stroke="#797979" fill="none" />
  </g>
</svg>