<?xml version="1.0" encoding="utf-8"?>
<svg version="1.1" xmlns:xlink="http://www.w3.org/1999/xlink" width="20px" height="20px" xmlns="http://www.w3.org/2000/svg">
  <g transform="matrix(1 0 0 1 -691 -631 )">
    <path d="M 701 631  C 706.6 631  711 635.4  711 641  C 711 646.6  706.6 651  701 651  C 695.4 651  691 646.6  691 641  C 691 635.4  695.4 631  701 631  Z " fill-rule="nonzero" fill="#ffffff" stroke="none" fill-opacity="0" />
    <path d="M 701 631.5  C 706.32 631.5  710.5 635.68  710.5 641  C 710.5 646.32  706.32 650.5  701 650.5  C 695.68 650.5  691.5 646.32  691.5 641  C 691.5 635.68  695.68 631.5  701 631.5  Z " stroke-width="1" stroke="#797979" fill="none" />
  </g>
</svg>