<?xml version="1.0" encoding="utf-8"?>
<svg version="1.1" xmlns:xlink="http://www.w3.org/1999/xlink" width="80px" height="30px" xmlns="http://www.w3.org/2000/svg">
  <g transform="matrix(1 0 0 1 -283 -44 )">
    <path d="M 284 59  A 14 14 0 0 1 298 45 L 348 45  A 14 14 0 0 1 362 59 A 14 14 0 0 1 348 73 L 298 73  A 14 14 0 0 1 284 59 Z " fill-rule="nonzero" fill="#000000" stroke="none" fill-opacity="0.117647058823529" />
    <path d="M 283.5 59  A 14.5 14.5 0 0 1 298 44.5 L 348 44.5  A 14.5 14.5 0 0 1 362.5 59 A 14.5 14.5 0 0 1 348 73.5 L 298 73.5  A 14.5 14.5 0 0 1 283.5 59 Z " stroke-width="1" stroke="#eeeeee" fill="none" stroke-opacity="0.298039215686275" />
  </g>
</svg>