<?xml version="1.0" encoding="utf-8"?>
<svg version="1.1" xmlns:xlink="http://www.w3.org/1999/xlink" width="18px" height="6px" xmlns="http://www.w3.org/2000/svg">
  <g transform="matrix(1 0 0 1 -295 -56 )">
    <path d="M 9 0  C 10.68 0  12 1.31999999999999  12 3  C 12 4.68000000000001  10.68 6  9 6  C 7.32000000000005 6  6 4.68000000000001  6 3  C 6 1.31999999999999  7.32000000000005 0  9 0  Z M 1.5 2  C 2.34000000000003 2  3 2.66  3 3.5  C 3 4.34  2.34000000000003 5  1.5 5  C 0.659999999999968 5  0 4.34  0 3.5  C 0 2.66  0.659999999999968 2  1.5 2  Z M 18 3.5  C 18 4.34  17.34 5  16.5 5  C 15.66 5  15 4.34  15 3.5  C 15 2.66  15.66 2  16.5 2  C 17.34 2  18 2.66  18 3.5  Z " fill-rule="nonzero" fill="#ffffff" stroke="none" transform="matrix(1 0 0 1 295 56 )" />
  </g>
</svg>