<?xml version="1.0" encoding="utf-8"?>
<svg version="1.1" xmlns:xlink="http://www.w3.org/1999/xlink" width="16px" height="16px" xmlns="http://www.w3.org/2000/svg">
  <g transform="matrix(1 0 0 1 -335 -51 )">
    <path d="M 5 8  C 5 6.31999999999999  6.32000000000005 5  8 5  C 9.67999999999995 5  11 6.31999999999999  11 8  C 11 9.68000000000001  9.67999999999995 11  8 11  C 6.32000000000005 11  5 9.68000000000001  5 8  Z M 16 8  C 16 12.48  12.48 16  8 16  C 3.51999999999998 16  0 12.48  0 8  C 0 3.52000000000001  3.51999999999998 0  8 0  C 12.48 0  16 3.52000000000001  16 8  Z M 2 8  C 2 11.36  4.63999999999999 14  8 14  C 11.36 14  14 11.36  14 8  C 14 4.64000000000001  11.36 2  8 2  C 4.63999999999999 2  2 4.64000000000001  2 8  Z " fill-rule="nonzero" fill="#ffffff" stroke="none" transform="matrix(1 0 0 1 335 51 )" />
  </g>
</svg>