<?xml version="1.0" encoding="utf-8"?>
<svg version="1.1" xmlns:xlink="http://www.w3.org/1999/xlink" width="30px" height="30px" xmlns="http://www.w3.org/2000/svg">
  <g transform="matrix(1 0 0 1 -465 -440 )">
    <path d="M 480 440  C 488.4 440  495 446.6  495 455  C 495 463.4  488.4 470  480 470  C 471.6 470  465 463.4  465 455  C 465 446.6  471.6 440  480 440  Z " fill-rule="nonzero" fill="#ffffff" stroke="none" />
    <path d="M 480 440.5  C 488.12 440.5  494.5 446.88  494.5 455  C 494.5 463.12  488.12 469.5  480 469.5  C 471.88 469.5  465.5 463.12  465.5 455  C 465.5 446.88  471.88 440.5  480 440.5  Z " stroke-width="1" stroke="#8c8c8c" fill="none" />
  </g>
</svg>